<mxfile host="app.diagrams.net" agent="Mozilla/5.0 (Windows NT 10.0; Win64; x64) AppleWebKit/537.36 (KHTML, like Gecko) Chrome/127.0.0.0 Safari/537.36" version="24.7.7">
  <diagram id="DVIYCdoWCnHOzDaxWkXW" name="쇼핑몰 유스케이드">
    <mxGraphModel dx="1434" dy="780" grid="1" gridSize="10" guides="1" tooltips="1" connect="1" arrows="1" fold="1" page="1" pageScale="1" pageWidth="3300" pageHeight="4681" math="0" shadow="0">
      <root>
        <mxCell id="0" />
        <mxCell id="1" parent="0" />
        <mxCell id="dJW_Y0ds-byifYe3O6wY-6" value="쇼핑몰 시스템" style="shape=umlFrame;whiteSpace=wrap;html=1;pointerEvents=0;width=100;height=40;" parent="1" vertex="1">
          <mxGeometry x="374" y="370" width="1056" height="660" as="geometry" />
        </mxCell>
        <mxCell id="YcSf_Vbz7YugXKA4AkIA-7" value="비회원" style="shape=umlActor;verticalLabelPosition=bottom;verticalAlign=top;html=1;" vertex="1" parent="1">
          <mxGeometry x="290" y="450" width="30" height="60" as="geometry" />
        </mxCell>
        <mxCell id="YcSf_Vbz7YugXKA4AkIA-8" value="회원" style="shape=umlActor;verticalLabelPosition=bottom;verticalAlign=top;html=1;" vertex="1" parent="1">
          <mxGeometry x="290" y="840" width="30" height="60" as="geometry" />
        </mxCell>
        <mxCell id="YcSf_Vbz7YugXKA4AkIA-10" value="관리자" style="shape=umlActor;verticalLabelPosition=bottom;verticalAlign=top;html=1;" vertex="1" parent="1">
          <mxGeometry x="1500" y="631" width="30" height="60" as="geometry" />
        </mxCell>
        <mxCell id="YcSf_Vbz7YugXKA4AkIA-11" value="인증" style="ellipse;whiteSpace=wrap;html=1;" vertex="1" parent="1">
          <mxGeometry x="850" y="651" width="100" height="40" as="geometry" />
        </mxCell>
        <mxCell id="YcSf_Vbz7YugXKA4AkIA-12" value="장바구니 삭제" style="ellipse;whiteSpace=wrap;html=1;" vertex="1" parent="1">
          <mxGeometry x="510" y="850" width="80" height="50" as="geometry" />
        </mxCell>
        <mxCell id="YcSf_Vbz7YugXKA4AkIA-13" value="장바구니 담기" style="ellipse;whiteSpace=wrap;html=1;" vertex="1" parent="1">
          <mxGeometry x="510" y="800" width="80" height="50" as="geometry" />
        </mxCell>
        <mxCell id="YcSf_Vbz7YugXKA4AkIA-14" value="상품결제" style="ellipse;whiteSpace=wrap;html=1;" vertex="1" parent="1">
          <mxGeometry x="510" y="730" width="80" height="50" as="geometry" />
        </mxCell>
        <mxCell id="YcSf_Vbz7YugXKA4AkIA-15" value="상품주문" style="ellipse;whiteSpace=wrap;html=1;" vertex="1" parent="1">
          <mxGeometry x="510" y="675" width="80" height="50" as="geometry" />
        </mxCell>
        <mxCell id="YcSf_Vbz7YugXKA4AkIA-16" value="상품검색" style="ellipse;whiteSpace=wrap;html=1;" vertex="1" parent="1">
          <mxGeometry x="510" y="520" width="80" height="50" as="geometry" />
        </mxCell>
        <mxCell id="YcSf_Vbz7YugXKA4AkIA-17" value="상품목록조회" style="ellipse;whiteSpace=wrap;html=1;" vertex="1" parent="1">
          <mxGeometry x="510" y="590" width="80" height="50" as="geometry" />
        </mxCell>
        <mxCell id="YcSf_Vbz7YugXKA4AkIA-18" value="회원가입" style="ellipse;whiteSpace=wrap;html=1;" vertex="1" parent="1">
          <mxGeometry x="525" y="380" width="70" height="50" as="geometry" />
        </mxCell>
        <mxCell id="YcSf_Vbz7YugXKA4AkIA-21" value="마이페이지" style="ellipse;whiteSpace=wrap;html=1;" vertex="1" parent="1">
          <mxGeometry x="1015" y="800" width="80" height="50" as="geometry" />
        </mxCell>
        <mxCell id="YcSf_Vbz7YugXKA4AkIA-22" value="로그아웃" style="ellipse;whiteSpace=wrap;html=1;" vertex="1" parent="1">
          <mxGeometry x="515" y="970" width="80" height="50" as="geometry" />
        </mxCell>
        <mxCell id="YcSf_Vbz7YugXKA4AkIA-27" value="" style="rounded=0;orthogonalLoop=1;jettySize=auto;html=1;endArrow=blockThin;endFill=1;exitX=1;exitY=0.3333333333333333;exitDx=0;exitDy=0;exitPerimeter=0;entryX=0;entryY=0.5;entryDx=0;entryDy=0;" edge="1" parent="1" source="YcSf_Vbz7YugXKA4AkIA-7" target="YcSf_Vbz7YugXKA4AkIA-18">
          <mxGeometry relative="1" as="geometry">
            <mxPoint x="315" y="850" as="sourcePoint" />
            <mxPoint x="315" y="530" as="targetPoint" />
          </mxGeometry>
        </mxCell>
        <mxCell id="YcSf_Vbz7YugXKA4AkIA-28" value="" style="rounded=0;orthogonalLoop=1;jettySize=auto;html=1;endArrow=blockThin;endFill=1;entryX=0;entryY=0.5;entryDx=0;entryDy=0;" edge="1" parent="1" target="YcSf_Vbz7YugXKA4AkIA-17">
          <mxGeometry relative="1" as="geometry">
            <mxPoint x="320" y="470" as="sourcePoint" />
            <mxPoint x="540" y="455" as="targetPoint" />
          </mxGeometry>
        </mxCell>
        <mxCell id="YcSf_Vbz7YugXKA4AkIA-29" value="" style="rounded=0;orthogonalLoop=1;jettySize=auto;html=1;endArrow=blockThin;endFill=1;entryX=0;entryY=0.5;entryDx=0;entryDy=0;" edge="1" parent="1" target="YcSf_Vbz7YugXKA4AkIA-16">
          <mxGeometry relative="1" as="geometry">
            <mxPoint x="320" y="470" as="sourcePoint" />
            <mxPoint x="530" y="525" as="targetPoint" />
          </mxGeometry>
        </mxCell>
        <mxCell id="YcSf_Vbz7YugXKA4AkIA-30" value="" style="rounded=0;orthogonalLoop=1;jettySize=auto;html=1;endArrow=blockThin;endFill=1;entryX=0;entryY=0.5;entryDx=0;entryDy=0;" edge="1" parent="1" target="YcSf_Vbz7YugXKA4AkIA-22">
          <mxGeometry relative="1" as="geometry">
            <mxPoint x="300" y="860" as="sourcePoint" />
            <mxPoint x="500" y="905" as="targetPoint" />
          </mxGeometry>
        </mxCell>
        <mxCell id="YcSf_Vbz7YugXKA4AkIA-31" value="" style="rounded=0;orthogonalLoop=1;jettySize=auto;html=1;endArrow=blockThin;endFill=1;entryX=0;entryY=0.5;entryDx=0;entryDy=0;" edge="1" parent="1" target="YcSf_Vbz7YugXKA4AkIA-12">
          <mxGeometry relative="1" as="geometry">
            <mxPoint x="300" y="860" as="sourcePoint" />
            <mxPoint x="530" y="925" as="targetPoint" />
          </mxGeometry>
        </mxCell>
        <mxCell id="YcSf_Vbz7YugXKA4AkIA-32" value="" style="rounded=0;orthogonalLoop=1;jettySize=auto;html=1;endArrow=blockThin;endFill=1;entryX=0;entryY=0.5;entryDx=0;entryDy=0;exitX=0.433;exitY=0.333;exitDx=0;exitDy=0;exitPerimeter=0;" edge="1" parent="1" source="YcSf_Vbz7YugXKA4AkIA-8" target="YcSf_Vbz7YugXKA4AkIA-13">
          <mxGeometry relative="1" as="geometry">
            <mxPoint x="310" y="870" as="sourcePoint" />
            <mxPoint x="530" y="865" as="targetPoint" />
          </mxGeometry>
        </mxCell>
        <mxCell id="YcSf_Vbz7YugXKA4AkIA-38" style="edgeStyle=orthogonalEdgeStyle;rounded=0;orthogonalLoop=1;jettySize=auto;html=1;exitX=0.5;exitY=1;exitDx=0;exitDy=0;" edge="1" parent="1" source="YcSf_Vbz7YugXKA4AkIA-16" target="YcSf_Vbz7YugXKA4AkIA-16">
          <mxGeometry relative="1" as="geometry" />
        </mxCell>
        <mxCell id="YcSf_Vbz7YugXKA4AkIA-39" value="" style="rounded=0;orthogonalLoop=1;jettySize=auto;html=1;endArrow=blockThin;endFill=1;entryX=0;entryY=0.5;entryDx=0;entryDy=0;exitX=0.4;exitY=0.383;exitDx=0;exitDy=0;exitPerimeter=0;" edge="1" parent="1" source="YcSf_Vbz7YugXKA4AkIA-8" target="YcSf_Vbz7YugXKA4AkIA-15">
          <mxGeometry relative="1" as="geometry">
            <mxPoint x="300" y="800" as="sourcePoint" />
            <mxPoint x="520" y="606" as="targetPoint" />
          </mxGeometry>
        </mxCell>
        <mxCell id="YcSf_Vbz7YugXKA4AkIA-40" value="" style="rounded=0;orthogonalLoop=1;jettySize=auto;html=1;endArrow=blockThin;endFill=1;entryX=0;entryY=0.5;entryDx=0;entryDy=0;" edge="1" parent="1" target="YcSf_Vbz7YugXKA4AkIA-14">
          <mxGeometry relative="1" as="geometry">
            <mxPoint x="300" y="860" as="sourcePoint" />
            <mxPoint x="530" y="676" as="targetPoint" />
          </mxGeometry>
        </mxCell>
        <mxCell id="e1mvUgYhMEN7yiQ_MiE3-2" value="카테고리 선택" style="ellipse;whiteSpace=wrap;html=1;" vertex="1" parent="1">
          <mxGeometry x="670" y="520" width="50" height="50" as="geometry" />
        </mxCell>
        <mxCell id="e1mvUgYhMEN7yiQ_MiE3-8" value="&amp;lt;&amp;lt;extend&amp;gt;&amp;gt;" style="endArrow=open;endSize=12;dashed=1;html=1;rounded=0;entryX=1;entryY=0.5;entryDx=0;entryDy=0;exitX=0;exitY=0.5;exitDx=0;exitDy=0;" edge="1" parent="1" source="e1mvUgYhMEN7yiQ_MiE3-2" target="YcSf_Vbz7YugXKA4AkIA-17">
          <mxGeometry x="-0.1947" y="6" width="160" relative="1" as="geometry">
            <mxPoint x="630" y="580" as="sourcePoint" />
            <mxPoint x="768" y="360" as="targetPoint" />
            <mxPoint as="offset" />
          </mxGeometry>
        </mxCell>
        <mxCell id="e1mvUgYhMEN7yiQ_MiE3-9" value="&amp;lt;&amp;lt;Include&amp;gt;&amp;gt;" style="endArrow=open;endSize=12;dashed=1;html=1;rounded=0;entryX=0;entryY=0.5;entryDx=0;entryDy=0;exitX=1;exitY=0.5;exitDx=0;exitDy=0;" edge="1" parent="1" source="YcSf_Vbz7YugXKA4AkIA-15" target="YcSf_Vbz7YugXKA4AkIA-11">
          <mxGeometry x="-0.1947" y="6" width="160" relative="1" as="geometry">
            <mxPoint x="765" y="661" as="sourcePoint" />
            <mxPoint x="685" y="701" as="targetPoint" />
            <mxPoint as="offset" />
          </mxGeometry>
        </mxCell>
        <mxCell id="e1mvUgYhMEN7yiQ_MiE3-10" value="&amp;lt;&amp;lt;Include&amp;gt;&amp;gt;" style="endArrow=open;endSize=12;dashed=1;html=1;rounded=0;exitX=1;exitY=0.5;exitDx=0;exitDy=0;" edge="1" parent="1" source="YcSf_Vbz7YugXKA4AkIA-14">
          <mxGeometry x="-0.1947" y="6" width="160" relative="1" as="geometry">
            <mxPoint x="600" y="755" as="sourcePoint" />
            <mxPoint x="850" y="670" as="targetPoint" />
            <mxPoint as="offset" />
          </mxGeometry>
        </mxCell>
        <mxCell id="e1mvUgYhMEN7yiQ_MiE3-11" value="&amp;lt;&amp;lt;Include&amp;gt;&amp;gt;" style="endArrow=open;endSize=12;dashed=1;html=1;rounded=0;exitX=1;exitY=0.5;exitDx=0;exitDy=0;" edge="1" parent="1" source="YcSf_Vbz7YugXKA4AkIA-13">
          <mxGeometry x="-0.1947" y="6" width="160" relative="1" as="geometry">
            <mxPoint x="600" y="815" as="sourcePoint" />
            <mxPoint x="860" y="680" as="targetPoint" />
            <mxPoint as="offset" />
          </mxGeometry>
        </mxCell>
        <mxCell id="e1mvUgYhMEN7yiQ_MiE3-12" value="&amp;lt;&amp;lt;Include&amp;gt;&amp;gt;" style="endArrow=open;endSize=12;dashed=1;html=1;rounded=0;exitX=1;exitY=0.5;exitDx=0;exitDy=0;" edge="1" parent="1" source="YcSf_Vbz7YugXKA4AkIA-12">
          <mxGeometry x="-0.1947" y="6" width="160" relative="1" as="geometry">
            <mxPoint x="605" y="880" as="sourcePoint" />
            <mxPoint x="870" y="690" as="targetPoint" />
            <mxPoint as="offset" />
          </mxGeometry>
        </mxCell>
        <mxCell id="e1mvUgYhMEN7yiQ_MiE3-14" value="&amp;lt;&amp;lt;Include&amp;gt;&amp;gt;" style="endArrow=open;endSize=12;dashed=1;html=1;rounded=0;exitX=0;exitY=0;exitDx=0;exitDy=0;entryX=1;entryY=1;entryDx=0;entryDy=0;" edge="1" parent="1" source="YcSf_Vbz7YugXKA4AkIA-21" target="YcSf_Vbz7YugXKA4AkIA-11">
          <mxGeometry x="-0.1947" y="6" width="160" relative="1" as="geometry">
            <mxPoint x="605" y="945" as="sourcePoint" />
            <mxPoint x="880" y="700" as="targetPoint" />
            <mxPoint as="offset" />
          </mxGeometry>
        </mxCell>
        <mxCell id="e1mvUgYhMEN7yiQ_MiE3-55" value="" style="edgeStyle=orthogonalEdgeStyle;rounded=0;orthogonalLoop=1;jettySize=auto;html=1;" edge="1" parent="1" source="e1mvUgYhMEN7yiQ_MiE3-15" target="YcSf_Vbz7YugXKA4AkIA-21">
          <mxGeometry relative="1" as="geometry">
            <Array as="points">
              <mxPoint x="1085" y="860" />
              <mxPoint x="1055" y="860" />
            </Array>
          </mxGeometry>
        </mxCell>
        <mxCell id="e1mvUgYhMEN7yiQ_MiE3-15" value="회원정보수정" style="ellipse;whiteSpace=wrap;html=1;" vertex="1" parent="1">
          <mxGeometry x="1060" y="895" width="49.72" height="50" as="geometry" />
        </mxCell>
        <mxCell id="e1mvUgYhMEN7yiQ_MiE3-51" value="" style="edgeStyle=orthogonalEdgeStyle;rounded=0;orthogonalLoop=1;jettySize=auto;html=1;" edge="1" parent="1" source="e1mvUgYhMEN7yiQ_MiE3-16" target="YcSf_Vbz7YugXKA4AkIA-21">
          <mxGeometry relative="1" as="geometry">
            <Array as="points">
              <mxPoint x="1135" y="860" />
              <mxPoint x="1055" y="860" />
            </Array>
          </mxGeometry>
        </mxCell>
        <mxCell id="e1mvUgYhMEN7yiQ_MiE3-16" value="회원탈퇴" style="ellipse;whiteSpace=wrap;html=1;" vertex="1" parent="1">
          <mxGeometry x="1110.8400000000001" y="895" width="49.72" height="50" as="geometry" />
        </mxCell>
        <mxCell id="e1mvUgYhMEN7yiQ_MiE3-54" value="" style="edgeStyle=orthogonalEdgeStyle;rounded=0;orthogonalLoop=1;jettySize=auto;html=1;" edge="1" parent="1" source="e1mvUgYhMEN7yiQ_MiE3-18" target="YcSf_Vbz7YugXKA4AkIA-21">
          <mxGeometry relative="1" as="geometry">
            <Array as="points">
              <mxPoint x="1035" y="860" />
              <mxPoint x="1055" y="860" />
            </Array>
          </mxGeometry>
        </mxCell>
        <mxCell id="e1mvUgYhMEN7yiQ_MiE3-18" value="구매내역 확인" style="ellipse;whiteSpace=wrap;html=1;" vertex="1" parent="1">
          <mxGeometry x="1010.14" y="895" width="49.72" height="50" as="geometry" />
        </mxCell>
        <mxCell id="e1mvUgYhMEN7yiQ_MiE3-50" value="" style="edgeStyle=orthogonalEdgeStyle;rounded=0;orthogonalLoop=1;jettySize=auto;html=1;" edge="1" parent="1" source="e1mvUgYhMEN7yiQ_MiE3-19" target="YcSf_Vbz7YugXKA4AkIA-21">
          <mxGeometry relative="1" as="geometry">
            <Array as="points">
              <mxPoint x="985" y="860" />
              <mxPoint x="1055" y="860" />
            </Array>
          </mxGeometry>
        </mxCell>
        <mxCell id="e1mvUgYhMEN7yiQ_MiE3-19" value="결제내역 확인" style="ellipse;whiteSpace=wrap;html=1;" vertex="1" parent="1">
          <mxGeometry x="960.42" y="895" width="49.72" height="50" as="geometry" />
        </mxCell>
        <mxCell id="e1mvUgYhMEN7yiQ_MiE3-20" value="상품관리" style="ellipse;whiteSpace=wrap;html=1;" vertex="1" parent="1">
          <mxGeometry x="1144.86" y="490" width="80" height="50" as="geometry" />
        </mxCell>
        <mxCell id="e1mvUgYhMEN7yiQ_MiE3-41" value="" style="edgeStyle=orthogonalEdgeStyle;rounded=0;orthogonalLoop=1;jettySize=auto;html=1;" edge="1" parent="1" source="e1mvUgYhMEN7yiQ_MiE3-21" target="e1mvUgYhMEN7yiQ_MiE3-20">
          <mxGeometry relative="1" as="geometry" />
        </mxCell>
        <mxCell id="e1mvUgYhMEN7yiQ_MiE3-21" value="상품등록" style="ellipse;whiteSpace=wrap;html=1;" vertex="1" parent="1">
          <mxGeometry x="1105.28" y="581" width="49.72" height="50" as="geometry" />
        </mxCell>
        <mxCell id="e1mvUgYhMEN7yiQ_MiE3-40" value="" style="edgeStyle=orthogonalEdgeStyle;rounded=0;orthogonalLoop=1;jettySize=auto;html=1;" edge="1" parent="1" source="e1mvUgYhMEN7yiQ_MiE3-22" target="e1mvUgYhMEN7yiQ_MiE3-20">
          <mxGeometry relative="1" as="geometry" />
        </mxCell>
        <mxCell id="e1mvUgYhMEN7yiQ_MiE3-22" value="상품수정" style="ellipse;whiteSpace=wrap;html=1;" vertex="1" parent="1">
          <mxGeometry x="1160.5600000000002" y="581" width="49.72" height="50" as="geometry" />
        </mxCell>
        <mxCell id="e1mvUgYhMEN7yiQ_MiE3-42" value="" style="edgeStyle=orthogonalEdgeStyle;rounded=0;orthogonalLoop=1;jettySize=auto;html=1;" edge="1" parent="1" source="e1mvUgYhMEN7yiQ_MiE3-23" target="e1mvUgYhMEN7yiQ_MiE3-20">
          <mxGeometry relative="1" as="geometry" />
        </mxCell>
        <mxCell id="e1mvUgYhMEN7yiQ_MiE3-23" value="상품삭제" style="ellipse;whiteSpace=wrap;html=1;" vertex="1" parent="1">
          <mxGeometry x="1220.0000000000002" y="581" width="49.72" height="50" as="geometry" />
        </mxCell>
        <mxCell id="e1mvUgYhMEN7yiQ_MiE3-24" value="카테고리관리" style="ellipse;whiteSpace=wrap;html=1;" vertex="1" parent="1">
          <mxGeometry x="1274.86" y="750" width="80" height="50" as="geometry" />
        </mxCell>
        <mxCell id="e1mvUgYhMEN7yiQ_MiE3-46" value="" style="edgeStyle=orthogonalEdgeStyle;rounded=0;orthogonalLoop=1;jettySize=auto;html=1;" edge="1" parent="1" source="e1mvUgYhMEN7yiQ_MiE3-25" target="e1mvUgYhMEN7yiQ_MiE3-24">
          <mxGeometry relative="1" as="geometry">
            <Array as="points">
              <mxPoint x="1260" y="810" />
              <mxPoint x="1315" y="810" />
            </Array>
          </mxGeometry>
        </mxCell>
        <mxCell id="e1mvUgYhMEN7yiQ_MiE3-25" value="카테고리&lt;div&gt;등록&lt;/div&gt;" style="ellipse;whiteSpace=wrap;html=1;" vertex="1" parent="1">
          <mxGeometry x="1235" y="830" width="49.72" height="50" as="geometry" />
        </mxCell>
        <mxCell id="e1mvUgYhMEN7yiQ_MiE3-43" value="" style="edgeStyle=orthogonalEdgeStyle;rounded=0;orthogonalLoop=1;jettySize=auto;html=1;" edge="1" parent="1" source="e1mvUgYhMEN7yiQ_MiE3-26" target="e1mvUgYhMEN7yiQ_MiE3-24">
          <mxGeometry relative="1" as="geometry" />
        </mxCell>
        <mxCell id="e1mvUgYhMEN7yiQ_MiE3-26" value="카테고리 수정" style="ellipse;whiteSpace=wrap;html=1;" vertex="1" parent="1">
          <mxGeometry x="1290" y="830" width="49.72" height="50" as="geometry" />
        </mxCell>
        <mxCell id="e1mvUgYhMEN7yiQ_MiE3-47" value="" style="edgeStyle=orthogonalEdgeStyle;rounded=0;orthogonalLoop=1;jettySize=auto;html=1;" edge="1" parent="1" source="e1mvUgYhMEN7yiQ_MiE3-27" target="e1mvUgYhMEN7yiQ_MiE3-24">
          <mxGeometry relative="1" as="geometry">
            <Array as="points">
              <mxPoint x="1375" y="810" />
              <mxPoint x="1315" y="810" />
            </Array>
          </mxGeometry>
        </mxCell>
        <mxCell id="e1mvUgYhMEN7yiQ_MiE3-27" value="카테고리 삭제" style="ellipse;whiteSpace=wrap;html=1;" vertex="1" parent="1">
          <mxGeometry x="1350.2800000000002" y="830" width="49.72" height="50" as="geometry" />
        </mxCell>
        <mxCell id="e1mvUgYhMEN7yiQ_MiE3-28" value="결제 회사" style="shape=umlActor;verticalLabelPosition=bottom;verticalAlign=top;html=1;" vertex="1" parent="1">
          <mxGeometry x="850" y="820" width="30" height="60" as="geometry" />
        </mxCell>
        <mxCell id="e1mvUgYhMEN7yiQ_MiE3-30" value="" style="rounded=0;orthogonalLoop=1;jettySize=auto;html=1;endArrow=blockThin;endFill=1;entryX=0.5;entryY=0.5;entryDx=0;entryDy=0;exitX=1;exitY=0.5;exitDx=0;exitDy=0;entryPerimeter=0;" edge="1" parent="1" source="YcSf_Vbz7YugXKA4AkIA-14" target="e1mvUgYhMEN7yiQ_MiE3-28">
          <mxGeometry relative="1" as="geometry">
            <mxPoint x="310" y="870" as="sourcePoint" />
            <mxPoint x="520" y="815" as="targetPoint" />
          </mxGeometry>
        </mxCell>
        <mxCell id="e1mvUgYhMEN7yiQ_MiE3-31" value="" style="rounded=0;orthogonalLoop=1;jettySize=auto;html=1;endArrow=blockThin;endFill=1;entryX=0;entryY=0.5;entryDx=0;entryDy=0;" edge="1" parent="1" target="YcSf_Vbz7YugXKA4AkIA-17">
          <mxGeometry relative="1" as="geometry">
            <mxPoint x="300" y="860" as="sourcePoint" />
            <mxPoint x="520" y="755" as="targetPoint" />
          </mxGeometry>
        </mxCell>
        <mxCell id="e1mvUgYhMEN7yiQ_MiE3-32" value="" style="rounded=0;orthogonalLoop=1;jettySize=auto;html=1;endArrow=blockThin;endFill=1;entryX=0;entryY=0.5;entryDx=0;entryDy=0;" edge="1" parent="1" target="YcSf_Vbz7YugXKA4AkIA-16">
          <mxGeometry relative="1" as="geometry">
            <mxPoint x="300" y="860" as="sourcePoint" />
            <mxPoint x="520" y="595" as="targetPoint" />
          </mxGeometry>
        </mxCell>
        <mxCell id="e1mvUgYhMEN7yiQ_MiE3-33" value="&amp;lt;&amp;lt;extend&amp;gt;&amp;gt;" style="endArrow=open;endSize=12;dashed=1;html=1;rounded=0;entryX=1;entryY=0.5;entryDx=0;entryDy=0;exitX=0;exitY=0.5;exitDx=0;exitDy=0;" edge="1" parent="1" source="e1mvUgYhMEN7yiQ_MiE3-2" target="YcSf_Vbz7YugXKA4AkIA-16">
          <mxGeometry x="-0.1947" y="6" width="160" relative="1" as="geometry">
            <mxPoint x="680" y="555" as="sourcePoint" />
            <mxPoint x="600" y="625" as="targetPoint" />
            <mxPoint as="offset" />
          </mxGeometry>
        </mxCell>
        <mxCell id="e1mvUgYhMEN7yiQ_MiE3-34" value="&amp;lt;&amp;lt;Include&amp;gt;&amp;gt;" style="endArrow=open;endSize=12;dashed=1;html=1;rounded=0;exitX=0;exitY=0.5;exitDx=0;exitDy=0;entryX=1;entryY=0.5;entryDx=0;entryDy=0;" edge="1" parent="1" source="e1mvUgYhMEN7yiQ_MiE3-24" target="YcSf_Vbz7YugXKA4AkIA-11">
          <mxGeometry x="-0.1947" y="6" width="160" relative="1" as="geometry">
            <mxPoint x="1037" y="817" as="sourcePoint" />
            <mxPoint x="945" y="695" as="targetPoint" />
            <mxPoint as="offset" />
          </mxGeometry>
        </mxCell>
        <mxCell id="e1mvUgYhMEN7yiQ_MiE3-35" value="&amp;lt;&amp;lt;Include&amp;gt;&amp;gt;" style="endArrow=open;endSize=12;dashed=1;html=1;rounded=0;exitX=0;exitY=0.5;exitDx=0;exitDy=0;entryX=1;entryY=0;entryDx=0;entryDy=0;" edge="1" parent="1" source="e1mvUgYhMEN7yiQ_MiE3-20" target="YcSf_Vbz7YugXKA4AkIA-11">
          <mxGeometry x="-0.1947" y="6" width="160" relative="1" as="geometry">
            <mxPoint x="1285" y="785" as="sourcePoint" />
            <mxPoint x="960" y="681" as="targetPoint" />
            <mxPoint as="offset" />
          </mxGeometry>
        </mxCell>
        <mxCell id="e1mvUgYhMEN7yiQ_MiE3-36" value="" style="rounded=0;orthogonalLoop=1;jettySize=auto;html=1;endArrow=blockThin;endFill=1;entryX=1;entryY=0.5;entryDx=0;entryDy=0;exitX=0.5;exitY=0.5;exitDx=0;exitDy=0;exitPerimeter=0;" edge="1" parent="1" source="YcSf_Vbz7YugXKA4AkIA-10" target="e1mvUgYhMEN7yiQ_MiE3-24">
          <mxGeometry relative="1" as="geometry">
            <mxPoint x="600" y="815" as="sourcePoint" />
            <mxPoint x="875" y="860" as="targetPoint" />
          </mxGeometry>
        </mxCell>
        <mxCell id="e1mvUgYhMEN7yiQ_MiE3-37" value="" style="rounded=0;orthogonalLoop=1;jettySize=auto;html=1;endArrow=blockThin;endFill=1;entryX=1;entryY=0;entryDx=0;entryDy=0;exitX=0.5;exitY=0.5;exitDx=0;exitDy=0;exitPerimeter=0;" edge="1" parent="1" source="YcSf_Vbz7YugXKA4AkIA-10" target="YcSf_Vbz7YugXKA4AkIA-21">
          <mxGeometry relative="1" as="geometry">
            <mxPoint x="1525" y="671" as="sourcePoint" />
            <mxPoint x="1365" y="785" as="targetPoint" />
          </mxGeometry>
        </mxCell>
        <mxCell id="e1mvUgYhMEN7yiQ_MiE3-38" value="" style="rounded=0;orthogonalLoop=1;jettySize=auto;html=1;endArrow=blockThin;endFill=1;entryX=1;entryY=0.5;entryDx=0;entryDy=0;exitX=0.5;exitY=0.5;exitDx=0;exitDy=0;exitPerimeter=0;" edge="1" parent="1" source="YcSf_Vbz7YugXKA4AkIA-10" target="e1mvUgYhMEN7yiQ_MiE3-20">
          <mxGeometry relative="1" as="geometry">
            <mxPoint x="1525" y="671" as="sourcePoint" />
            <mxPoint x="1093" y="817" as="targetPoint" />
          </mxGeometry>
        </mxCell>
      </root>
    </mxGraphModel>
  </diagram>
</mxfile>
